<svg version="1.1" id="レイヤー_1" xmlns="http://www.w3.org/2000/svg" xmlns:xlink="http://www.w3.org/1999/xlink" x="0" y="0" width="140" height="60" xml:space="preserve"><style>.st1{fill:#8dc500}.st3{fill:#a48b6d}.st4{fill:#e5d2a9}.st5{fill:#8fb422}.st9{fill:#f6ce28}.st10{fill:#fff}.st14{fill:#9e9f9f}.st16{opacity:.7;fill:#e89213}</style><path d="M1 9.8c-.1 0-.1 0-.1-.1V1.6c0-.1 0-.1.1-.1h2.2c.2-.3.3-.6.4-1 0-.1 0-.3.1-.5.4 0 .8.1 1.1.2.1 0 .1.1.1.1 0 .1 0 .1-.1.1 0 .2-.1.2-.1.3-.1.3-.2.5-.4.8h3.6c.1 0 .1 0 .1.1v8.1c0 .1 0 .1-.1.1h-1c-.1 0-.1 0-.1-.1v-.5H2v.5c0 .1 0 .1-.1.1H1zm1-6.1h4.8V2.5H2v1.2zm4.8 2.2V4.7H2v1.2h4.8zm0 2.3V6.9H2v1.3h4.8zM18.2.3c.1-.1.2-.1.2.1.7 1.6 2 3.1 3.4 3.9-.2.2-.4.5-.6.8-.1.2-.2.3-.2.3-.1 0-.1-.1-.2-.1-.4-.3-.7-.6-1-.9v1.1c0 1.1-.1 2-.3 3-.1.8-.5 1.3-1.6 1.3h-.7c-.3 0-.3 0-.4-.4-.1-.4-.2-.6-.3-.9.5.1.8.1 1.2.1.4 0 .6-.2.7-.7.1-.6.2-1.4.2-2.6h-1.9c-.2 2.1-1.3 3.6-3.2 4.5-.1.1-.2.1-.3.1-.1 0-.1-.1-.2-.3-.1-.3-.3-.5-.5-.6 1.9-.7 2.9-1.8 3.1-3.7h-1.5c-.1 0-.1 0-.1-.1v-.8c-.3.3-.7.6-1 .9-.1.1-.2.1-.2.1-.1 0-.1-.1-.2-.2-.2-.3-.4-.5-.6-.6 1.4-.9 2.5-2.2 3.1-3.5-.2-.3-.1-.5-.1-.8.4.1.8.2 1.1.4.1.1.1.1.1.2s0 .1-.1.2c0 0-.1.1-.1.3-.5 1.1-1.2 2.1-1.9 2.8h5.6c-1-1-1.8-2.2-2.3-3.4 0-.1 0-.1.1-.2l.7-.3zm9.3 2.8c.1.1.2.1.2.2s0 .1-.1.2c-.1.2-.2.4-.2.6-.1.5-.2 1.3-.3 1.9 1-1 2.3-1.7 3.5-1.7 1.6 0 2.5.9 2.5 2.3 0 1.2-.7 1.9-1.6 2.4-.7.4-1.8.6-2.7.7-.2 0-.3 0-.4-.1-.2-.4-.4-.6-.7-.9 1.2-.1 2.2-.3 2.9-.6.9-.4 1.3-.9 1.3-1.6 0-.6-.4-1.1-1.3-1.1S28.5 6 27.5 7c-.2.2-.3.4-.5.6h-.2c-.2-.1-.5-.2-.7-.3-.1 0-.1-.1-.1-.2.1-1.2.2-2.5.3-3.4 0-.3.1-.6.1-1 .4.1.8.2 1.1.4zm.3-2.7c.1-.1.1-.1.2-.1.7.3 1.4.7 2 1.3.1 0 .1.1.1.1s0 .1-.1.1c-.1.2-.4.5-.5.7 0 .1-.1.1-.1.1s-.1 0-.1-.1c-.6-.5-1.3-1-2.1-1.4.2-.3.4-.5.6-.7zm12 .4c.2 0 .3.1.3.2s-.1.2-.1.4c-.1.1-.1.5-.1 1.3-.1 1.6-.2 2.7-.2 4.1 0 1.1.1 1.3 1 1.3s2.4-.6 3.7-2c0 .4.1.8.2 1 .1.1.1.2.1.3 0 .1 0 .2-.2.3-1.1 1.1-2.6 1.6-4 1.6s-2-.5-2-2.2c0-1.8.1-3.3.1-4.6 0-.6.1-1.3-.1-1.9.5.1 1 .2 1.3.2zm14.7.4c.1 0 .1.1.1.2s-.1.2-.1.2c-.1.1-.3.2-.5.4-1 .8-2.2 1.9-3 2.7-.1.1-.1.2-.1.2 0 .1 0 .1.1.2 1.4 1 2.8 2.2 4 3.4v.1s0 .1-.1.1c-.2.3-.6.6-.7.7l-.1.1s-.1 0-.1-.1c-1.2-1.4-2.4-2.5-3.9-3.6-.4-.3-.6-.5-.6-.9s.2-.6.5-.9c.9-1 1.8-1.9 2.7-2.9.3-.3.4-.5.6-.8.5.4.9.7 1.2.9zm14.6 1.4h1c.1 0 .1 0 .1.1v1c0 1.8-.1 3.6-.2 4.8-.1.8-.3 1.2-1.2 1.2h-.5c-.2 0-.2 0-.2-.4 0-.3-.1-.5-.2-.7.3.1.5.1.7.1.3 0 .4-.1.4-.7.2-1 .2-2.5.2-4.5h-.5c-.1 1.1-.2 2.1-.3 3-.2 1.1-.6 2.1-1.3 3.1-.1.1-.1.1-.2.1s-.1-.1-.2-.1c-.2-.2-.4-.4-.6-.5l.2-.3c-.1 0-.1 0-.2.1-.7.1-1.7.3-2.6.4-.2 0-.3.1-.4.1l-.1.1s-.1-.1-.1-.2c-.1-.2-.1-.5-.1-.9h.9c.3 0 .5 0 .8-.1v-.6h-1.4c-.1 0-.1 0-.1-.1V7c0-.1 0-.1.1-.1h1.4v-.5h-1.4c-.1 0-.1 0-.1-.1V3.4c0-.1 0-.1.1-.1h1.4v-.4h-1.6c-.1 0-.1 0-.1-.1v-.7c0-.1 0-.1.1-.1h1.6v-.4c-.3 0-.5.1-.8.1-.3 0-.3 0-.4-.2-.1-.2-.2-.4-.3-.5 0 0 0 .1-.1.2-.2.6-.4 1.1-.6 1.6v6.9c0 .1 0 .1-.1.1h-.8c-.1 0-.1 0-.1-.1V4.6l-.4.6c-.1.1-.1.2-.2.2 0 0-.1-.1-.1-.2-.1-.4-.1-.7-.3-1 .8-1.1 1.3-2.1 1.6-3.3.1-.2.1-.5.2-.8.3.1.7.2 1 .3.1 0 .2.1.2.2s0 .1-.1.2c0 0-.1 0-.1.1 1.1-.1 2-.2 2.8-.4.2 0 .3-.1.5-.2.2.2.4.4.5.6 0 .1.1.1.1.2s-.1.1-.1.1h-.3c-.4.1-.7.1-1.1.2V2H67c.1 0 .1 0 .1.1v.6c0 .1 0 .1-.1.1h-1.5v.5h1.4c.1 0 .1 0 .1.1v2.9c0 .1 0 .1-.1.1h-1.4v.5h1.2c.1 0 .1 0 .1.1v.6c0 .1 0 .1-.1.1h-1.2v.5c.4-.1.8-.1 1.2-.2 0 .1-.1.3-.1.5v.2c.5-.7.8-1.5 1-2.4.1-.7.2-1.6.3-2.7h-.6c-.1 0-.1 0-.1-.1v-.8c0-.1 0-.1.1-.1h.6v-.8c0-.7 0-1.1-.1-1.5.3 0 .7 0 1 .1.1 0 .2.1.2.1 0 .1-.1.2-.1.3 0 .1-.1.4-.1 1.1v.8h.3zm-4.6 2V4h-.7v.5h.7zm0 1.1v-.5h-.7v.6h.7zm.8-1.7v.5h.7V4h-.7zm.7 1.2h-.7v.6h.7v-.6zm10.6 3.5c0 .1 0 .1-.1.1-.3.2-.5.3-.8.3-.1 0-.2 0-.2-.1-.3-.7-.6-2.2-.6-3.3 0-.9.1-1.8.3-3.4.1-.5.1-1 .1-1.6.5.1.8.2 1.1.4.2.1.2.2.2.2s0 .1-.1.2-.1.4-.2.8c-.1 1.1-.3 2.3-.3 3.2 0 .7 0 1.3.1 1.7.3-.6.5-.9.7-1.5.2.4.2.5.4.7.1.1.1.1.1.2s0 .1-.1.4c-.3.6-.4.9-.5 1.3v.4zm3.7-4.8c-.6.1-1 .1-1.3.1h-.9c-.1 0-.2-.1-.2-.2 0-.2-.1-.5-.1-1 .4 0 .9.1 1.3.1h1.2c0-.5 0-1-.1-1.4 0-.4-.1-.6-.2-.9.6 0 1.1.1 1.4.1.1 0 .2.1.2.2s0 .1-.1.2c0 .1-.1.2-.1.4v1.2c.5-.1.9-.1 1.4-.2.1 0 .2 0 .2.1 0 .3.1.5.1.8 0 .1 0 .2-.1.2-.5.1-1 .2-1.5.2v1.6c0 1-.2 1.8-.5 2.5s-.9 1.3-1.5 1.6c-.1.1-.2.1-.3.1-.1 0-.1 0-.2-.1-.2-.2-.5-.4-.8-.5 1-.5 1.5-1 1.8-1.8.2-.5.3-1.3.3-2.4v-.9zm10 .7c.6-.3 1.1-.5 1.7-.5 1.6 0 2.6 1 2.6 2.6 0 1.8-1.4 2.9-3.7 2.9-1.3 0-2.1-.6-2.1-1.6 0-.7.7-1.3 1.5-1.3 1 0 1.7.5 2 1.6.7-.3 1.1-.8 1.1-1.6 0-1-.7-1.6-1.7-1.6-.9 0-1.9.4-2.7 1.1l-.9.9c-.1.1-.1.1-.2.1 0 0-.1 0-.2-.1-.2-.2-.5-.5-.6-.7-.1-.1 0-.2.1-.2.8-.7 1.6-1.3 2.5-2.3.7-.7 1.2-1.2 1.6-1.8-.6.1-1.4.3-2.1.4-.1 0-.3.1-.4.1-.1 0-.2.1-.2.1-.1 0-.2-.1-.2-.2-.1-.2-.2-.5-.4-1.1h1c.6-.1 1.6-.2 2.4-.4.3-.1.5-.1.6-.2.1 0 .1-.1.2-.1s.2 0 .2.1c.3.2.5.5.7.7.1.1.1.2.1.3 0 .1-.1.2-.2.3-.2.1-.3.2-.5.3-.7.6-1.4 1.4-2.2 2.2zm0 3c-.3 0-.5.2-.5.4 0 .3.3.6.9.6h.5c-.1-.7-.5-1-.9-1zm13.9-7c1.1 1.6 2.4 2.5 4.5 3.4-.2.2-.3.5-.5.8-.1.2-.1.3-.2.3s-.1 0-.2-.1c-1.9-.9-3.2-2-4.2-3.5-1 1.5-2.3 2.6-4 3.5-.1.1-.2.1-.3.1-.1 0-.1-.1-.2-.3-.1-.3-.3-.5-.5-.8 1.9-.8 3.1-1.9 4-3.3.2-.3.3-.5.4-.8.4.1.8.1 1.1.2.1 0 .2.1.2.2.1.1.1.2-.1.3zm-3.1 7c.3-.5.4-1.2.4-2.3 0-.5 0-.9-.1-1.2.4 0 .8 0 1.2.1.1 0 .2.1.2.1 0 .1 0 .1-.1.2 0 .1-.1.3-.1.9 0 1.5-.2 2.3-.6 3-.4.6-1 1.1-1.9 1.5-.1.1-.2.1-.3.1-.1 0-.1-.1-.2-.2-.2-.3-.4-.6-.6-.7 1.1-.5 1.8-.9 2.1-1.5zm3.6-2c0-.6 0-1.1-.1-1.6.4 0 .8 0 1.2.1.1 0 .2.1.2.1 0 .1 0 .2-.1.3 0 .1-.1.5-.1 1.1v4.1c0 .1 0 .1-.1.1h-.9c-.1 0-.1 0-.1-.1V5.6zm9.2-3.6h1.2c.1 0 .1 0 .1.1v.8c0 .1 0 .1-.1.1h-3.4c-.1 0-.1 0-.1-.1v-.8c0-.1 0-.1.1-.1h2.2zm1 6.1v1.5c0 .1 0 .1-.1.1h-.8c-.1 0-.1 0-.1-.1v-.3h-.9v.5c0 .1 0 .1-.1.1h-.7c-.1 0-.1 0-.1-.1V6.5c0-.1 0-.1.1-.1h2.6c.1 0 .1 0 .1.1v1.6zM113.8.6h1c.1 0 .1 0 .1.1v.7c0 .1 0 .1-.1.1h-2.7c-.1 0-.1 0-.1-.1V.6c0-.1 0-.1.1-.1h1.7zm-.1 2.9h.9c.1 0 .1 0 .1.1v.7c0 .1 0 .1-.1.1h-2.3c-.1 0-.1 0-.1-.1v-.7c0-.1 0-.1.1-.1h1.4zm0 1.5h.9c.1 0 .1 0 .1.1v.7c0 .1 0 .1-.1.1h-2.3c-.1 0-.1 0-.1-.1v-.7c0-.1 0-.1.1-.1h1.4zm-.7 2.3v1.1h.9V7.3h-.9zm2.6-2.9c-.1.1-.2.2-.3.2-.1 0-.1-.1-.2-.2-.1-.2-.3-.4-.4-.5.5-.4.9-.8 1.1-1.3.1-.2.2-.4.2-.6.4.1.6.1.8.2.1.1.2.1.2.1s0 .1-.1.1c0 0-.1.1-.1.2h1.2l.1-.3c.1-.1.1-.2.1-.3.3.1.6.1.9.2.1 0 .1.1.1.1 0 .1 0 .1-.1.1s-.1.1-.1.2v.1h1.9c.1 0 .1 0 .1.1v.4c0 .1 0 .1-.1.1H119v.4h1.6c.1 0 .1 0 .1.1v.4c0 .1 0 .1-.1.1H119v.4h1.6c.1 0 .1 0 .1.1v.4c0 .1 0 .1-.1.1H119v.4h2.1c.1 0 .1 0 .1.1v.4c0 .1 0 .1-.1.1h-5.2c-.1 0-.1 0-.1-.1V4.3l-.2.1zm3.9 2.4h.4c.1 0 .1 0 .4.3.3.2.3.3.3.4 0 .1 0 .1-.1.2-.1 0-.2.1-.3.3-.3.3-.6.6-.9.8.6.1 1.3.2 2.2.3l-.3.6c-.1.3-.1.3-.4.3-1-.1-1.8-.3-2.5-.6-.7.3-1.5.5-2.5.6-.3.1-.3.1-.5-.3-.1-.2-.2-.4-.3-.5.9-.1 1.7-.2 2.3-.4-.4-.3-.7-.6-1-1.1h-.7c-.1 0-.1 0-.1-.1v-.7c0-.1 0-.1.1-.1h3.9zm-2.9-6c0-.3 0-.5-.1-.7.3 0 .6 0 .9.1.1 0 .1.1.1.1v.1c0 .1-.1.2-.1.3v.1h1.3c0-.3 0-.5-.1-.7.3 0 .6 0 .9.1.1 0 .1 0 .1.1v.1c0 .1-.1.2-.1.3v.1h1.5c.1 0 .1 0 .1.1v.6c0 .1 0 .1-.1.1h-1.5V2c0 .1 0 .1-.1.1h-.7c-.1 0-.1 0-.1-.1v-.4h-1.3V2c0 .1 0 .1-.1.1h-.7c-.1 0-.1 0-.1-.1v-.4h-1.3c-.1 0-.1 0-.1-.1V1c0-.1 0-.1.1-.1.3 0 .6 0 1.5-.1zm1.4 3v-.4h-1.3v.4h1.3zm0 1v-.4h-1.3v.4h1.3zm0 1v-.4h-1.3v.4h1.3zm-.7 1.7c.3.3.6.5.9.7.4-.2.7-.4 1-.7h-1.9zm13.3 0c0 .1-.1.2-.2.2s-.5.1-.8.1c-.1 0-.1-.1-.1-.2V6.3c-.9.5-1.3.9-1.3 1.4 0 .4.4.7 1.5.7 1 0 1.8-.1 2.6-.2.1 0 .1 0 .1.1.1.2.1.6.1.9 0 .1 0 .2-.1.2-.9.1-1.6.1-2.6.1-1.7 0-2.7-.5-2.7-1.8 0-1 .6-1.8 2.2-2.6 0-.5-.2-.8-.6-.7-.5 0-1 .3-1.5.8-.5.4-.7.8-1.1 1.2l-.1.1s-.1 0-.1-.1c-.1-.1-.5-.5-.6-.7v-.1s0-.1.1-.1c.8-.7 1.6-1.6 2.2-2.6h-1.7c-.1 0-.1-.1-.1-.2 0-.2-.1-.6-.1-.9h2.4c.1-.3.2-.5.3-.9 0-.2.1-.4.1-.6.5.1.9.2 1.2.3.1 0 .1.1.1.2s0 .1-.1.2-.1.1-.2.3c-.1.1-.1.3-.2.6.6-.1 1.3-.2 1.9-.3.1 0 .1 0 .2.1.1.2.1.5.1.8 0 .1 0 .1-.2.2-.8.1-1.7.2-2.5.3-.2.4-.5.8-.8 1.2.3-.2.8-.3 1.1-.3.7 0 1.2.3 1.3 1.1.4-.2 1-.5 1.6-.7.2-.1.5-.3.8-.6.4.4.6.7.7.9.1.1.1.2.1.2 0 .1-.1.1-.2.1-.2 0-.4.1-.6.2-.7.2-1.4.5-2.3.9v1.5zm9.1.9c0 .9-.8 1.7-1.7 1.7s-1.7-.8-1.7-1.7c0-.9.8-1.7 1.7-1.7s1.7.7 1.7 1.7zm-2.7 0c0 .6.4 1 1 1s1-.4 1-1-.4-1-1-1-1 .4-1 1z" fill="#8f8f8f"/><path class="st1" d="M97.7 43.9c-.4 0-.7-.1-1-.3-.3-.3-.6-.7-.6-1.1 0-.4.1-.9.4-1.2 3.3-3.7 3.7-5.3 3.8-12.4 0-.9.7-1.6 1.6-1.6h.1c.4 0 .8.2 1.1.5.3.3.5.7.5 1.1-.1 8.1-1.1 10.4-4.7 14.5-.3.3-.8.5-1.2.5zM39.1 25c-2.8 0-4.2 0-5.5-.2-2.1-.3-3.9-1.1-5.7-1.9l-.5-.2.2-.5 1.2-2.2.5.2c1.5.7 3.1 1.4 4.7 1.7 1.3.2 2.6.2 5.1.2h.6v3h-.6zM33 44.2c-1.2 0-2.5-.2-3.9-.5l-.4-.1v-.4l.1-2.5.6.1c1.1.2 2.2.4 3.2.4 1.5 0 2.8-.3 4.1-.8 1.2-.5 2.3-2.3 1.8-3.7-.4-1.4-2.9-1.9-4.5-1.9h-.1c-1.8 0-3.9.4-7.3 2.3l-.3.2-.3-.2-1.5-.4c-.2-.1-.4-.2-.5-.4-.1-.2-.1-.4 0-.6l.1-.4c2.5-8.4 2.9-9.7 2.9-9.8l.1-.4h3.2l-.2.7c-.1.2-.4 1.6-2 6.8v.2l.2-.1c2.1-.8 4.5-1 5.5-1 3.2 0 6.9 1 7.8 3.9.9 2.9-.7 6.3-3.6 7.5-1.6.7-3.2 1.1-5 1.1zm43.6-.3c-.4 0-.8-.1-1-.4-.4-.3-.6-.7-.6-1.2 0-.4.2-.8.5-1.1 4.2-4 6-5.7 6.1-11.4v-.1h-5.3c-.1 0-.2.1-.3.2-.8 1.1-1.8 2.1-4 4.1-.3.3-.7.4-1.1.4-.4 0-.7-.1-1-.4-.3-.3-.5-.7-.5-1.2 0-.4.2-.9.5-1.1 4.9-4.3 5.5-6.6 5.5-10.3 0-.8.7-1.5 1.5-1.5.9 0 1.6.7 1.6 1.6 0 2.8-.2 4.1-.6 5.2v.1h11.9l.1.1c.6.1 1.1.7 1.1 1.4s-.5 1.3-1.1 1.4h-4.5c-.2 0-.4.2-.4.4-.2 6.7-2.4 8.8-7.1 13.4-.5.2-.9.4-1.3.4zm-66.3.3c-4.9 0-8.1-1.4-9.2-4.1-.6-1.4-.5-2.8.2-4.1 1.1-2 3.2-2.9 6.7-2.9h.2c1.8 0 3.8.4 4.6.6h.1v-.1c-.2-.8-.4-1.6-.5-1.9l-.1-.5h-.1L0 31.1v-2.9h11.5v-.1c-.2-.9-.3-1.5-.5-2V26H0v-3h10.3v-.1c-.3-.9-.6-2.2-.7-2.9l-.2-1h3.1l.1.4c0 .2.6 2.3.9 3.6v.1h5.6V26h-4.9l.5 2.2h4.4v2.9h-3.7v.1c.2.9.9 3.3 1 3.8l.2.7c.1.4-.1.9-.6 1l-1.5.4h-.3L14 37h-.1l-.5-.2c-1.4-.3-3.4-.8-5-.8h-.2c-2.2 0-3.4.5-3.9 1.5-.2.5-.3.9-.1 1.4C4.7 40 6 40.7 8.4 41c.7.1 1.6.1 2.5.1 1.4 0 2.8-.1 4.1-.2.4 0 .7.3.7.7v2.3l-.5.1c-2 .1-3.3.2-4.9.2z"/><path d="M51.8 37.3c-.7-5-3.5-7.8-8.5-8.5-.1 0-.2-.1-.2-.2s.1-.2.2-.2c5-.7 7.8-3.5 8.5-8.5 0-.1.1-.2.2-.2s.2.1.2.2c.7 5 3.5 7.8 8.5 8.5.1 0 .2.1.2.2s-.1.2-.2.2c-5 .7-7.8 3.5-8.5 8.5 0 .1-.1.2-.2.2s-.2-.1-.2-.2zm9.8 6.7c-.5-3.3-2.4-5.3-5.7-5.7-.1 0-.1-.1-.1-.1 0-.1 0-.1.1-.1 3.3-.5 5.2-2.4 5.7-5.7 0-.1.1-.1.1-.1.1 0 .1 0 .1.1.5 3.3 2.4 5.3 5.7 5.7.1 0 .1.1.1.1 0 .1 0 .1-.1.1-3.3.5-5.2 2.4-5.7 5.7 0 .1-.1.1-.1.1l-.1-.1z" fill="#ffa234"/><path class="st3" d="M140 44.5c.1-1.5-1.1-2.8-2.6-2.8h-.3s-1.5.2-3-.2-1.2-1-2.7-1c-2-.1-2.6 2.3-.2 4.7 2.1 2.1 5.3 2.1 6.2 2 1.4-.1 2.5-1.2 2.6-2.7z"/><path class="st4" d="M131.6 30.6c-.3-.3-.3-.2-.6-.6l-6.8-.3c-.4.2-1.5 1.1-1.7 1.4-.5.4-4 6.2-3.3 7.9.3.6.8.6 1 .6.2-.1.4-.4.6-.8-.3 1.1-.1 2 0 2.3.1.7.3 1.5.5 2.1.1 1.2.3 3.5.3 3.5 0 .2.2.4.4.4h1c.5 0 1.2-1.4 1.7-2.9 1.1-.2 2-.2 2.1-.2.2 0 .7.2 1.4.4v.2c0 1.6-.1 2.2-.1 2.2 0 .2.2.4.3.4h1c.3 0 1.8-1.4 2.3-2.8 1.1-.6 1.8-2.4 1.8-3.1 0 0 0-1.4-.2-2.5.2.4 1.1.9 1.3 1 .2.1.7.1 1-.5.9-1.7-3.6-8.3-4-8.7z"/><path class="st5" d="M123.3 33.1l7.1.1c.1-.7.6-3.4.6-3.4l1.2 1.5c0 .3-.2 2.7-.2 2.9.7 3.2 2.2 8.2 2.3 9.2l-14.3-.3c.3-1.4.7-6.2 1.8-9.6l.6-2.4 1.8-1.4c-.1 0-1 3-.9 3.4z"/><path d="M128 36.8c.1 0 .2-.1.3-.1l.3-.2c.2-.2.2-.4-.1-.5l-2.6-.8c-.3-.1-.4.1-.4.3l.1.3c0 .1.1.2.2.3-1.4-.1-2.8.6-3.1 1.6-.4 1.2.8 2.5 2.6 3.2 1.8.7 3.6.4 4-.8.5-1.1-.1-2.5-1.3-3.3z" fill="#f2972e"/><path class="st9" d="M123.5 37.5c.2-.8 1-1.3 1.9-1.5-1.3.1-2.4.7-2.7 1.6-.4 1.2.8 2.5 2.6 3.2.3.1.6.2.9.2-1.8-.6-3.1-2.1-2.7-3.5z"/><path class="st10" d="M123.4 37.8c.2-.1.6.9.4 1-.2.1-.4-.1-.5-.4s-.1-.5.1-.6z"/><path d="M124.1 40.1v-.2c0-.1 0-.2.1-.4 0-.1 0-.2.1-.3 0-.1.1-.2.1-.3l.3-.6.3-.6c.1-.2.2-.3.4-.5.2-.3.4-.4.4-.4s-.1.2-.3.5c-.1.1-.2.3-.3.5-.1.2-.2.4-.4.6l-.3.6c0 .1-.1.2-.1.3 0 .1-.1.2-.1.3-.1.2-.1.3-.1.4 0 .1 0 .1-.1.1zm2.5.9s0-.1.1-.1c0-.1.1-.2.2-.4 0-.1.1-.2.1-.3 0-.1.1-.2.1-.3.1-.2.1-.4.2-.6 0-.2.1-.4.1-.6 0-.2.1-.4.1-.6 0-.3.1-.6.1-.6s.1.2.1.6v.6c0 .2-.1.4-.1.7-.1.2-.1.4-.2.6 0 .1-.1.2-.1.3 0 .1-.1.2-.1.3-.1.2-.1.3-.2.4h-.4z" fill="#d06e29"/><path class="st10" d="M123.5 37.2c.1-.1.3.3.1.4-.1.1-.3 0-.3-.1s.1-.2.2-.3z"/><path class="st5" d="M130.8 39.1c0 1.6-2.1 2.9-4.6 2.9-2.5 0-4.6-1.4-4.5-3 1.6-.1 7.3 0 9.1.1z"/><path d="M126.3 42h-.1c-1.2 0-2.4-.4-3.3-.9-.9-.6-1.4-1.4-1.3-2.2v-.1l9.3.2v.1c0 .8-.5 1.6-1.4 2.1-.8.5-2 .8-3.2.8zm-4.5-3c0 .7.5 1.4 1.3 2 .8.6 2 .9 3.2.9 1.2 0 2.3-.3 3.2-.8.8-.5 1.3-1.2 1.3-1.9l-9-.2z" fill="#7a984f"/><path class="st3" d="M121.5 18.1c-2.4.2-2.8 1.2-2.3 2.8l2.3-2.8zm11.8.2c2.2.2 3 .5 2.3 2.8l-2.3-2.8z"/><path class="st4" d="M130.8 31.7c8.5-3 5.5-8.8 4.6-11-.3-.8-1.1-2-2.3-2.9-1.7-1.2-4.2-1.9-5.6-1.9s-4.1.6-5.8 1.9c-1.2.9-2 2.1-2.3 2.9-.9 2.2-3.9 8.2 4.6 11 1.1.4 5.7.4 6.8 0z"/><path class="st10" d="M131.7 28.7c0 2.3-2.5 3.1-5.5 2.8-3-.2-5.1-.8-5.1-2.8s2-3.6 5.1-3.6c3.1 0 5.5 1.6 5.5 3.6z"/><path d="M126 28.3c0-.2-1.7-1-2.1-1 .4 0 2.1-.8 2.1-1 0 .2 1.7 1 2.1 1-.3 0-2.1.8-2.1 1z" fill="#db804d"/><path transform="rotate(-82.004 129.696 26.652)" class="st14" d="M129.6 25.7h.2v1.9h-.2z"/><path transform="rotate(-72.158 129.588 27.142)" class="st14" d="M129.5 26.2h.2v1.9h-.2z"/><path transform="rotate(-7.961 122.28 26.657)" class="st14" d="M121.3 26.6h1.9v.2h-1.9z"/><path transform="rotate(-17.83 122.361 27.14)" class="st14" d="M121.4 27.1h1.9v.2h-1.9z"/><path class="st10" d="M126 26.6c0 .6-.7 1-1.6 1s-1.6-.5-1.6-1.1.7-.9 1.6-.9 1.6.4 1.6 1z"/><path class="st14" d="M124.4 27.7c-.9 0-1.7-.5-1.7-1.1 0-.6.7-1 1.7-1s1.7.5 1.7 1.1c0 .5-.8 1-1.7 1zm0-2c-.9 0-1.5.4-1.5.9s.7 1 1.5 1c.9 0 1.5-.4 1.5-.9 0-.6-.7-1-1.5-1z"/><path class="st10" d="M126 26.6c0 .6.7 1 1.6 1s1.6-.5 1.6-1.1-.7-.9-1.6-.9-1.6.4-1.6 1z"/><path class="st14" d="M127.6 27.7c-1 0-1.7-.5-1.7-1.1 0-.6.8-1.1 1.7-1.1 1 0 1.7.4 1.7 1s-.7 1.2-1.7 1.2zm0-2c-.9 0-1.5.4-1.5.9s.7.9 1.5.9c.9 0 1.5-.4 1.5-1 .1-.5-.6-.8-1.5-.8z"/><path d="M128.3 25.2l-1.9-1.1c-.2-.2-.6-.2-.8 0l-1.9 1.1c-.2.1-.2.2-.2.2s0 .2.2.2l1.9 1.1c.1.1.3.1.4.1.1 0 .3 0 .4-.1l1.9-1.1c.2-.1.2-.2.2-.2s0-.1-.2-.2zm3.9-.2c0 .5-.3.9-.8.9s-.8-.4-.8-.9.4-1.1.8-1.1.8.5.8 1.1zm-10 0c0 .5-.4.9-.9.9s-.8-.3-.8-.9.3-1.1.8-1.1.9.5.9 1.1z" fill="#221714"/><circle class="st16" cx="131.6" cy="25.1" r=".8"/><circle class="st16" cx="121.5" cy="25.1" r=".8"/><path class="st10" d="M131.3 24.1c.1.1-.3.5-.4.4-.1-.1-.1-.2 0-.4.2 0 .3-.1.4 0zm-10.1 0c.1.1-.3.5-.4.4-.1-.1-.1-.2 0-.4.1 0 .3-.1.4 0z"/><path class="st3" d="M130.7 22l.2-.2c.1 0 .2-.1.2-.1h.3c.2 0 .4.1.5.3.1.1.1.2.1.2h-.3c-.1 0-.1 0-.2-.1-.1 0-.2 0-.2-.1-.2 0-.3-.1-.4-.1-.1.1-.1.1-.2.1zm-9 0h-.2c-.1 0-.3 0-.4.1-.1 0-.2 0-.2.1-.1 0-.1 0-.2.1h-.3s0-.1.1-.2.3-.2.5-.3h.3c.1 0 .2 0 .2.1.1 0 .2 0 .2.1z"/><defs><path id="SVGID_1_" d="M126 28.3c0-.2-1.7-1-2.1-1 .4 0 2.1-.8 2.1-1 0 .2 1.7 1 2.1 1-.3 0-2.1.8-2.1 1z"/></defs><clipPath id="SVGID_2_"><use xlink:href="#SVGID_1_" overflow="visible"/></clipPath><ellipse cx="126.3" cy="28.2" rx="1.1" ry=".8" clip-path="url(#SVGID_2_)" fill="#eda371"/><path class="st9" d="M130.1 36.4c.1-.9.6-1.3 1.5-1.5-.9-.1-1.3-.6-1.5-1.5-.1.9-.6 1.3-1.5 1.5.8.2 1.3.6 1.5 1.5-.1 0-.1 0 0 0z"/><path class="st1" d="M105.7 33.3c-.5 0-1-.3-1.3-.7l-.1-.1c-.2-.4-.3-.8-.2-1.2.1-.4.4-.7.7-.9 3.8-2 5.4-2.9 5.4-4.2v-.3H94.7c-.8 0-1.5-.7-1.5-1.5s.7-1.5 1.5-1.5H112c.8 0 1.5.7 1.5 1.5v1.8c0 3-2.7 4.5-6.7 6.7l-.4.2c-.2.2-.5.2-.7.2z"/><g id="PRODUCED_BY_Leverages_x5F_black_17_"><path d="M46 58.3v-5.1h2.7c.2 0 .5.1.6.2.2.1.3.3.4.5.1.2.2.4.2.7 0 .4-.1.8-.4 1.1-.3.3-.8.4-1.5.4h-1.3v2.1H46zm.6-2.7H48c.4 0 .7-.1.9-.2.2-.2.3-.4.3-.7 0-.2-.1-.4-.2-.5-.1-.2-.2-.3-.4-.3h-1.9v1.7zm4.1 2.7v-5.1H53c.5 0 .8 0 1 .1.2.1.4.3.6.5.1.2.2.5.2.8 0 .4-.1.7-.3.9-.2.2-.6.4-1.1.5.2.1.3.2.4.3.2.2.4.4.6.7l.9 1.4h-.8l-.7-1.1c-.2-.3-.4-.5-.5-.7s-.2-.3-.3-.3c-.1-.1-.2-.1-.3-.1h-1.2v2.3h-.8zm.7-2.8h1.4c.3 0 .5 0 .7-.1.2-.1.3-.2.4-.3.1-.1.1-.3.1-.5s-.1-.4-.3-.6c-.2-.2-.4-.2-.8-.2h-1.6v1.7zm4.2.3c0-.8.2-1.5.7-2 .5-.5 1-.7 1.8-.7.5 0 .9.1 1.3.3.4.2.7.5.9.9.2.4.3.9.3 1.4 0 .5-.1 1-.3 1.4-.2.4-.5.7-.9.9-.4.2-.8.3-1.2.3-.5 0-.9-.1-1.3-.3-.4-.2-.7-.5-.9-.9-.3-.4-.4-.8-.4-1.3zm.7 0c0 .6.2 1.1.5 1.4.3.4.7.5 1.2.5s.9-.2 1.2-.5.5-.9.5-1.5c0-.4-.1-.8-.2-1.1-.1-.3-.3-.5-.6-.7-.3-.2-.6-.3-.9-.3-.5 0-.9.2-1.2.5-.3.4-.5 1-.5 1.7zm5 2.5v-5.1H63c.4 0 .7 0 .9.1.3.1.5.2.7.4.3.2.5.5.6.9.1.4.2.8.2 1.2 0 .4 0 .7-.1 1-.1.3-.2.5-.3.7-.1.2-.3.3-.5.5l-.6.3c-.2.1-.5.1-.8.1h-1.8zm.7-.6h1.1c.3 0 .6 0 .8-.1.2-.1.3-.2.5-.3.2-.2.3-.4.4-.6.1-.3.1-.6.1-1 0-.5-.1-.9-.3-1.2-.2-.3-.4-.5-.6-.6-.2-.1-.5-.1-.9-.1H62v3.9zm7.8-4.5h.7v2.9c0 .5-.1.9-.2 1.2-.1.3-.3.5-.6.7-.3.2-.7.3-1.2.3s-.9-.1-1.2-.2-.5-.4-.6-.7c-.1-.3-.2-.7-.2-1.3v-2.9h.7v2.9c0 .4 0 .8.1 1 .1.2.2.4.4.5.2.1.4.2.7.2.5 0 .8-.1 1.1-.3.2-.2.3-.7.3-1.3v-3zm5.4 3.3l.7.2c-.1.6-.4 1-.8 1.3-.4.3-.8.4-1.3.4s-1-.1-1.3-.3c-.3-.2-.6-.5-.8-1-.2-.4-.3-.9-.3-1.4 0-.5.1-1 .3-1.4.2-.4.5-.7.9-.9.4-.2.8-.3 1.2-.3.5 0 .9.1 1.3.4.3.3.6.6.7 1.1l-.7.2c-.1-.4-.3-.6-.5-.8-.2-.2-.5-.3-.8-.3-.4 0-.7.1-1 .3-.3.2-.4.4-.6.8-.1.3-.2.6-.2 1s.1.8.2 1.1c.1.3.3.6.6.7.3.2.6.2.9.2.4 0 .7-.1 1-.3s.4-.5.5-1zm1.5 1.8v-5.1h3.7v.6h-3v1.6h2.8v.6h-2.8v1.7h3.1v.6h-3.8zm4.7 0v-5.1h1.7c.4 0 .7 0 .9.1.3.1.5.2.7.4.3.2.5.5.6.9.1.4.2.8.2 1.2 0 .4 0 .7-.1 1-.1.3-.2.5-.3.7-.1.2-.3.3-.5.5l-.6.3c-.2.1-.5.1-.8.1h-1.8zm.7-.6h1.1c.3 0 .6 0 .8-.1.2-.1.3-.2.5-.3.2-.2.3-.4.4-.6s.1-.6.1-1c0-.5-.1-.9-.3-1.2-.2-.3-.4-.5-.6-.6-.2-.1-.5-.1-.9-.1h-1.1v3.9zm6.4.6v-5.1h1.9c.4 0 .7.1.9.2.2.1.4.3.6.5.1.2.2.4.2.7 0 .2-.1.4-.2.6-.1.2-.3.3-.5.5.3.1.5.2.7.5.2.2.2.5.2.8 0 .2 0 .5-.2.7-.1.2-.2.4-.4.5-.1.1-.3.2-.6.3-.2.1-.5.1-.8.1h-1.8zm.6-2.9h1.1c.3 0 .5 0 .6-.1.2-.1.3-.1.4-.3.1-.1.1-.3.1-.4 0-.2 0-.3-.1-.4l-.3-.3c-.1 0-.4-.1-.8-.1h-1v1.6zm0 2.3h1.8c.2 0 .3-.1.4-.1l.3-.3c.1-.1.1-.3.1-.4 0-.2 0-.4-.1-.5-.1-.1-.2-.2-.4-.3-.3-.1-.6-.1-.9-.1h-1.2v1.7zm5.6.6v-2.2l-2-2.9h.8l1 1.5c.2.3.4.6.5.9.2-.3.3-.6.6-.9l1-1.5h.8l-2 2.9v2.2h-.7z" fill="#989898"/><path d="M100.7 58.2v-6.4h1.1v5.5h2.6v.9zm7.9-.1c-.5.2-1 .3-1.5.3s-.8-.1-1.2-.3c-.3-.2-.6-.5-.8-.9-.2-.4-.3-.8-.3-1.3 0-.4.1-.9.2-1.2.2-.4.4-.7.7-.9.3-.2.7-.3 1.1-.3.5 0 1 .2 1.3.6.3.4.5 1.1.5 2.2H106c0 .3.1.6.2.8.1.2.2.3.4.4.2.1.4.2.7.2.4 0 .8-.1 1.3-.3v.7zm-2.6-2.7h1.5c0-.4-.1-.7-.2-.9-.1-.2-.3-.3-.5-.3s-.4.1-.5.3c-.2.2-.3.5-.3.9zm4.8 2.8l-1.6-4.7h1.2l1.2 3.4 1.2-3.4h.8l-1.6 4.7h-1.2zm6.9-.1c-.5.2-1 .3-1.5.3s-.8-.1-1.2-.3-.6-.5-.8-.9c-.2-.4-.3-.8-.3-1.3 0-.4.1-.9.2-1.2.2-.4.4-.7.7-.9.3-.2.7-.3 1.1-.3.5 0 1 .2 1.3.6.3.4.5 1.1.5 2.2h-2.6c0 .3.1.6.2.8.1.2.2.3.4.4.2.1.4.2.7.2.4 0 .8-.1 1.3-.3v.7zm-2.5-2.7h1.5c0-.4-.1-.7-.2-.9-.1-.2-.3-.3-.5-.3s-.4.1-.5.3c-.2.2-.3.5-.3.9zm3.7 2.8v-4.7h1.1v.9c.1-.3.3-.6.5-.7.2-.2.5-.3.8-.3h.2v1.1c-.2-.1-.3-.1-.4-.1-.2 0-.4.1-.6.2-.2.1-.3.3-.5.6v3h-1.1zm5.6-.5l-.4.4c-.1.1-.2.1-.4.2-.1 0-.3.1-.4.1-.4 0-.7-.1-.9-.4-.2-.3-.3-.6-.3-1 0-.5.2-.9.5-1.2.3-.3.9-.5 1.6-.5h.3v-.4c0-.3-.1-.5-.2-.6-.1-.1-.3-.1-.5-.1-.4 0-.9.1-1.3.4v-.9c.5-.2 1-.3 1.5-.3.3 0 .6 0 .8.1.2.1.4.2.6.4.1.2.2.5.2.9v2.1c0 .3 0 .4.1.5.1.1.1.1.2.1h.2v.7c-.2.1-.4.1-.6.1-.2 0-.4 0-.5-.1-.3-.1-.4-.2-.5-.5zm0-.7v-1h-.3c-.4 0-.6.1-.8.2-.2.2-.3.3-.3.6 0 .2.1.3.2.5.1.1.2.2.4.2.1 0 .3 0 .4-.1.1-.1.3-.2.4-.4zm2.6 2.7l.1-.9c.5.2.9.4 1.3.4s.7-.1.9-.3c.2-.2.3-.5.3-1v-.6c-.1.3-.3.5-.5.7-.2.2-.5.3-.8.3-.3 0-.6-.1-.8-.3-.2-.2-.4-.5-.6-.8-.1-.4-.2-.8-.2-1.2 0-.7.2-1.3.5-1.8s.7-.7 1.3-.7c.1 0 .3 0 .4.1.1 0 .2.1.4.2l.4.4.1-.5h1v3.6c0 1-.1 1.6-.2 1.9-.2.3-.4.6-.7.7-.3.2-.7.3-1.1.3-.8-.2-1.3-.3-1.8-.5zm2.5-3.3v-1.8l-.4-.4c-.1-.1-.3-.1-.4-.1-.3 0-.5.1-.7.4-.2.3-.3.7-.3 1.2 0 .4.1.8.2 1 .1.2.3.4.6.4.2 0 .4-.1.5-.2.2 0 .4-.2.5-.5zm5.9 1.7c-.5.2-1 .3-1.5.3-.4 0-.8-.1-1.2-.3-.3-.2-.6-.5-.8-.9-.2-.4-.3-.8-.3-1.3 0-.4.1-.9.2-1.2.2-.4.4-.7.7-.9.3-.2.7-.3 1.1-.3.5 0 1 .2 1.3.6.3.4.5 1.1.5 2.2H133c0 .3.1.6.2.8.1.2.2.3.4.4.2.1.4.2.7.2.4 0 .8-.1 1.3-.3v.7zm-2.6-2.7h1.5c0-.4-.1-.7-.2-.9-.1-.2-.3-.3-.5-.3s-.4.1-.5.3c-.1.2-.2.5-.3.9zm3.7 2.7v-.9c.6.3 1 .4 1.4.4.2 0 .4 0 .5-.1.1-.1.2-.2.2-.4 0-.1 0-.2-.1-.3-.1-.1-.2-.2-.4-.3l-.4-.2c-.4-.2-.7-.4-.9-.6-.2-.2-.3-.5-.3-.8 0-.4.1-.7.4-1 .3-.3.7-.4 1.3-.4.3 0 .7.1 1.2.2v.9c-.4-.2-.8-.3-1.1-.3-.2 0-.4 0-.5.1-.1.1-.2.2-.2.4 0 .1 0 .2.1.3.1.1.2.2.4.3l.3.1c.5.2.9.5 1.1.7.2.2.2.5.2.8 0 .4-.2.7-.5 1-.3.3-.7.5-1.3.5-.4-.2-.9-.3-1.4-.4z" fill="#1f3134"/></g></svg>