<svg id="レイヤー_1" data-name="レイヤー 1" xmlns="http://www.w3.org/2000/svg" xmlns:xlink="http://www.w3.org/1999/xlink" viewBox="0 0 405 164"><defs><style>.cls-1{fill:none;}.cls-2{fill:#dae000;}.cls-3{clip-path:url(#clip-path);}.cls-4{fill:#abcd03;}.cls-5{fill:#231815;}</style><clipPath id="clip-path"><path class="cls-1" d="M352.31,88.14c-10.85-24.79-56.79,2-154.91,2s-144.06-26.78-154.91-2c-13.15,30,66.51,75.75,154.91,75.75S365.46,118.18,352.31,88.14Z"/></clipPath></defs><title>logo</title><path class="cls-2" d="M352.31,88.14c-10.85-24.79-56.79,2-154.91,2s-144.06-26.78-154.91-2c-13.15,30,66.51,75.75,154.91,75.75S365.46,118.18,352.31,88.14Z"/><g class="cls-3"><ellipse class="cls-4" cx="197.4" cy="157.35" rx="151.5" ry="54.07"/></g><path class="cls-5" d="M123,1.67h-5.77a2.79,2.79,0,0,0-2.81,2.74c0,3.91-1.39,4.55-6.86,7.74A249.27,249.27,0,0,1,71.7,29.75c-1.83.73-2.59,2-2.59,4.33v3.85A2.75,2.75,0,0,0,70,40.29a3.25,3.25,0,0,0,3-.06c7.13-2.9,14.71-6.36,22.23-10v28A2.77,2.77,0,0,0,98,61h5.91a2.77,2.77,0,0,0,2.76-2.76V24.5c3.72-1.91,7.38-3.83,10.89-5.71,6.42-3.43,8.21-6.31,8.21-13.66V4.22A2.77,2.77,0,0,0,123,1.67Z"/><path class="cls-5" d="M55.24,10.41H28.72v-6A2.76,2.76,0,0,0,26,1.67H20.74A2.76,2.76,0,0,0,18,4.43v6H6.2a2.77,2.77,0,0,0-2.76,2.76V17.4A2.77,2.77,0,0,0,6.2,20.16H17.44V24c-.17,15.76-4.59,23.14-13.82,25.4C.84,50.06.48,50.64.48,53.07V57.8a2.18,2.18,0,0,0,.59,1.68A3,3,0,0,0,3.4,60a27.15,27.15,0,0,0,17.48-9.73c4.35-5.06,6.47-12.7,7.3-26.35l0-3.78H47V36.8C47,47.15,45.43,49,36.51,49H34.74A2.74,2.74,0,0,0,32,51.71v4.82a2.82,2.82,0,0,0,2.76,2.76h3.12c14.81-.39,20.27-6,20.14-20.53V13.17A2.77,2.77,0,0,0,55.24,10.41Z"/><path class="cls-5" d="M311.71,12.14H282.28a2.77,2.77,0,0,0-2.76,2.76v3.47a2.78,2.78,0,0,0,2.2,2.71l28.21,0c4.21,0,5.26,1,5.33,5.12v4.13H285.52a2.77,2.77,0,0,0-2.76,2.76v3.34a2.77,2.77,0,0,0,2.76,2.76h29.74v5.19c-.07,4.13-1.12,5.13-5.33,5.13H282.28a2.77,2.77,0,0,0-2.76,2.76v3.41a2.77,2.77,0,0,0,2.76,2.76H311.7c4.79,0,8.39-1.08,10.7-3.41s3.32-5.67,3.22-10.16V25.72c.1-4.5-1-7.93-3.22-10.18S316.46,12.09,311.71,12.14Z"/><rect class="cls-5" x="250.88" width="6.8" height="10.92" rx="2.15"/><rect class="cls-5" x="261.57" width="6.88" height="10.92" rx="2.15"/><path class="cls-5" d="M262.11,15.72h-5.5a2.77,2.77,0,0,0-2.76,2.76v9.87c-.27,15.78-4.39,19.65-21,19.72H214.6a2.77,2.77,0,0,0-2.76,2.76v4.82a2.76,2.76,0,0,0,2.76,2.76h16.7c14.33-.06,20.61-1.64,25.84-6.47,5.7-5.37,7.8-11.67,7.73-23.25V18.48A2.77,2.77,0,0,0,262.11,15.72Z"/><rect class="cls-5" x="210.21" y="5.32" width="25.16" height="10.14" rx="2.76"/><rect class="cls-5" x="210.21" y="21.74" width="25.16" height="10.14" rx="2.76"/><rect class="cls-5" x="186.1" width="6.8" height="10.92" rx="2.15"/><rect class="cls-5" x="196.79" width="6.88" height="10.92" rx="2.15"/><path class="cls-5" d="M181.79,10.33v-4h-42A2.77,2.77,0,0,0,137.07,9v4.82a2.77,2.77,0,0,0,2.76,2.76h39.25V48.07H139.83a2.77,2.77,0,0,0-2.76,2.76v4.82a2.76,2.76,0,0,0,2.76,2.76h43.51c4.36,0,6.76-2.32,6.76-6.55V15h-3.68A4.85,4.85,0,0,1,181.79,10.33Z"/><rect class="cls-5" x="386.95" width="6.8" height="10.92" rx="2.15"/><rect class="cls-5" x="397.64" width="6.88" height="10.92" rx="2.15"/><path class="cls-5" d="M382.64,10.33v-4h-42A2.76,2.76,0,0,0,337.92,9v4.81a2.75,2.75,0,0,0,2.76,2.76H380v2.26c0,20.12-7.24,29.2-31.85,29.2h-4.81a2.77,2.77,0,0,0-2.76,2.76v4.82a2.76,2.76,0,0,0,2.76,2.76h1.79C380.52,58.41,391,45.5,391,17.13V15h-3.68A4.84,4.84,0,0,1,382.64,10.33Z"/></svg>